<svg xmlns="http://www.w3.org/2000/svg" xmlns:xlink="http://www.w3.org/1999/xlink" version="1.1" id="Layer_1" x="0px" y="0px" style="enable-background:new 0 0 1920 1080;" xml:space="preserve" viewBox="781.3 406.3 286.6 311.4">
<style type="text/css">
	.q-logo-single{fill:#FFFFFF;}
</style>
<g>
	<g>
		<path class="q-logo-single" d="M781.3,548.3c0-81.8,63.5-142,143.3-142s143.3,60.2,143.3,142c0,81.8-63.5,142-143.3,142    S781.3,630.1,781.3,548.3z M1009.2,548.3c0-51.7-34.2-91.2-84.6-91.2c-50.5,0-84.6,39.5-84.6,91.2s34.2,91.2,84.6,91.2    C975,639.4,1009.2,600,1009.2,548.3z"/>
	</g>
	<g>
		<g>
			<path class="q-logo-single" d="M997.2,655.6l-47.9-34.9c-14.4,19.8-10,47.7,9.8,62.1l47.9,34.9C1021.3,697.9,1016.9,670,997.2,655.6z"/>
			<path class="q-logo-single" d="M994.7,640.1l-47.9-34.9c-14.4,19.8-10,47.7,9.8,62.1l47.9,34.9C1018.9,682.4,1014.5,654.5,994.7,640.1z"/>
			<path class="q-logo-single" d="M992.3,624.6l-47.9-34.9c-14.4,19.8-10,47.7,9.8,62.1l47.9,34.9C1016.5,666.9,1012.1,639,992.3,624.6z"/>
		</g>
	</g>
</g>
</svg>