<svg version="1.1" xmlns="http://www.w3.org/2000/svg" xmlns:xlink="http://www.w3.org/1999/xlink" x="0px" y="0px" viewBox="0 0 24 36" xml:space="preserve" style="display: block;"><path fill="#FFFFFF" d="M0,18.9c0-6.9,5.3-12,12-12s12,5.1,12,12s-5.3,12-12,12S0,25.8,0,18.9z M20.2,18.9
	c0-5-3.4-8.7-8.2-8.7s-8.2,3.7-8.2,8.7s3.4,8.7,8.2,8.7C16.8,27.5,20.2,23.8,20.2,18.9z"></path><path fill="#FFFFFF" d="M8.7,2.3H3.4c0,1.9,1.8,3.4,3.9,3.4h5.2C12.6,3.8,10.8,2.3,8.7,2.3z"></path><path fill="#FFFFFF" d="M7.7,1.1H3.4c0,1.9,0.9,3.4,3,3.4h5C11.4,2.7,9.7,1.1,7.7,1.1z"></path><path fill="#FFFFFF" d="M7.5,0H2.3c0,1.9,1.8,3.4,3.9,3.4h5.2C11.4,1.5,9.6,0,7.5,0z"></path></svg>